<?xml version="1.0" standalone="no"?>
<!DOCTYPE svg PUBLIC "-//W3C//DTD SVG 20010904//EN"
 "http://www.w3.org/TR/2001/REC-SVG-20010904/DTD/svg10.dtd">
<svg version="1.0" xmlns="http://www.w3.org/2000/svg"
 width="496.000000pt" height="252.000000pt" viewBox="0 0 496.000000 252.000000"
 preserveAspectRatio="xMidYMid meet">

<g transform="translate(0.000000,252.000000) scale(0.100000,-0.100000)"
fill="#ffffff" stroke="none">
<path d="M2260 1660 l0 -210 45 0 45 0 0 80 c0 78 1 80 24 80 19 0 33 -16 72
-80 l49 -80 49 0 48 0 -18 28 c-9 15 -37 56 -61 92 l-43 65 25 13 c51 26 68
96 39 157 -22 47 -72 65 -184 65 l-90 0 0 -210z m178 124 c38 -26 20 -94 -26
-94 -9 0 -27 -3 -39 -6 -22 -6 -23 -4 -23 55 l0 61 33 0 c18 0 43 -7 55 -16z"/>
<path d="M1408 1791 c-8 -56 -41 -90 -105 -107 l-48 -13 40 0 c65 -1 113 -51
116 -118 1 -20 4 -15 10 17 12 61 54 100 112 101 l42 1 -46 10 c-61 13 -101
53 -109 110 l-6 43 -6 -44z"/>
<path d="M836 1715 c-10 -140 -20 -192 -47 -249 -35 -75 -93 -132 -174 -172
-67 -33 -86 -37 -207 -48 l-133 -11 137 -12 c156 -13 211 -32 289 -101 48 -43
101 -133 115 -192 4 -19 13 -91 19 -160 11 -111 12 -117 14 -55 4 206 34 304
118 390 84 85 198 121 398 126 28 1 -11 7 -86 14 -160 14 -226 39 -302 113
-87 85 -114 158 -125 347 l-8 120 -8 -110z"/>
<path d="M2723 1773 c-63 -13 -111 -106 -99 -193 14 -105 106 -154 239 -127
34 7 37 10 37 44 0 29 -3 34 -17 28 -10 -4 -41 -9 -70 -12 -46 -5 -54 -3 -77
20 -49 49 -38 57 79 57 l105 0 0 38 c0 46 -26 99 -61 125 -27 19 -95 29 -136
20z m84 -68 c11 -8 23 -24 26 -35 5 -19 1 -20 -58 -20 -59 0 -63 1 -58 20 6
21 39 50 58 50 6 0 20 -7 32 -15z"/>
<path d="M3033 1769 c-34 -10 -63 -51 -63 -87 0 -32 39 -72 99 -100 40 -20 56
-33 56 -47 0 -17 -7 -20 -50 -20 -27 1 -62 5 -77 9 -27 8 -28 7 -28 -27 0 -43
16 -51 106 -50 75 1 118 21 133 65 20 58 0 91 -77 131 -80 40 -88 62 -22 61
25 0 52 -3 61 -7 11 -6 19 0 27 18 18 39 16 42 -32 54 -52 13 -88 13 -133 0z"/>
<path d="M3810 1773 c-8 -3 -25 -14 -36 -25 -21 -19 -21 -19 -27 1 -4 16 -13
21 -41 21 l-36 0 0 -160 0 -160 44 0 44 0 4 109 c3 118 17 151 63 151 39 0 45
-18 45 -142 l0 -118 44 0 44 0 4 111 c3 103 5 113 27 131 14 10 34 18 45 16
34 -5 46 -45 46 -155 l0 -103 40 0 40 0 0 134 c0 128 -1 136 -24 163 -21 24
-31 28 -79 28 -44 0 -61 -5 -79 -22 l-24 -23 -21 21 c-21 21 -93 34 -123 22z"/>
<path d="M4325 1766 c-84 -38 -116 -153 -68 -248 27 -56 107 -85 181 -66 140
35 146 265 9 317 -38 15 -85 13 -122 -3z m102 -71 c30 -21 40 -90 19 -138 -14
-34 -18 -37 -55 -37 -50 0 -65 22 -65 99 0 44 4 57 23 72 28 23 49 24 78 4z"/>
<path d="M3280 1655 c0 -169 21 -206 116 -208 31 0 54 7 75 22 l30 23 6 -21
c4 -16 13 -21 39 -21 l34 0 0 160 0 160 -45 0 -45 0 0 -104 c0 -84 -3 -108
-17 -124 -28 -32 -59 -36 -82 -13 -19 19 -21 33 -21 131 l0 110 -45 0 -45 0 0
-115z"/>
<path d="M1688 1030 c-3 -29 -15 -64 -29 -84 -30 -45 -105 -86 -155 -86 -29 0
-35 -3 -24 -10 8 -5 28 -10 43 -10 78 0 156 -81 165 -170 5 -60 22 -67 22 -10
0 90 83 180 167 180 15 0 35 5 43 10 11 7 5 10 -25 10 -61 0 -138 49 -164 103
-12 24 -21 60 -21 80 0 55 -17 45 -22 -13z"/>
<path d="M4017 1053 c-16 -15 -6 -63 14 -73 47 -26 101 26 69 65 -12 15 -71
21 -83 8z"/>
<path d="M4580 825 l0 -235 45 0 45 0 0 235 0 235 -45 0 -45 0 0 -235z"/>
<path d="M2270 810 l0 -220 125 0 125 0 0 40 0 40 -80 0 -80 0 0 55 0 55 75 0
75 0 0 40 0 40 -75 0 -75 0 0 50 0 50 80 0 80 0 0 35 0 35 -125 0 -125 0 0
-220z"/>
<path d="M2670 930 c-41 -10 -80 -51 -80 -85 0 -48 22 -75 87 -107 79 -39 94
-55 68 -74 -24 -18 -50 -18 -108 0 l-47 14 0 -38 c0 -38 0 -38 51 -49 85 -19
170 4 194 50 34 64 5 117 -84 156 -62 28 -75 41 -59 60 13 16 42 16 90 -1 37
-13 37 -13 47 17 6 16 9 33 6 37 -5 9 -97 31 -118 29 -7 -1 -28 -5 -47 -9z"/>
<path d="M3070 929 c-13 -5 -33 -17 -43 -26 -17 -16 -18 -15 -24 5 -4 18 -13
22 -44 22 l-39 0 0 -245 0 -245 45 0 45 0 0 97 0 96 25 -23 c18 -17 36 -23 69
-23 89 0 131 55 131 173 0 82 -18 128 -58 155 -32 20 -77 27 -107 14z m54 -91
c10 -14 16 -44 16 -78 0 -67 -19 -100 -59 -100 -35 0 -57 24 -66 71 -8 41 9
115 28 122 30 13 67 6 81 -15z"/>
<path d="M3380 927 c-48 -13 -59 -31 -37 -60 11 -16 18 -17 60 -6 60 15 97 2
97 -34 0 -22 -5 -25 -63 -29 -110 -9 -155 -50 -143 -127 3 -19 17 -46 30 -60
34 -34 112 -35 156 -3 36 27 36 27 43 2 4 -15 14 -20 36 -20 l31 0 0 139 c0
161 -8 181 -84 200 -54 13 -67 13 -126 -2z m120 -207 c0 -51 -47 -82 -94 -64
-19 7 -21 57 -3 72 14 11 42 19 75 21 18 1 22 -4 22 -29z"/>
<path d="M3777 925 c-22 -7 -49 -23 -62 -35 -31 -29 -49 -99 -42 -160 12 -101
58 -143 157 -144 75 0 100 15 100 60 0 31 -3 35 -17 29 -10 -4 -37 -9 -59 -12
-62 -8 -84 18 -84 97 0 47 4 64 20 80 21 21 67 25 105 11 16 -7 22 -2 33 22
18 43 17 44 -38 56 -63 13 -66 13 -113 -4z"/>
<path d="M4295 934 c-11 -3 -35 -10 -52 -15 -33 -10 -33 -11 -17 -41 12 -23
20 -29 37 -24 63 17 94 18 110 1 9 -9 17 -25 17 -36 0 -16 -7 -19 -46 -19
-130 0 -195 -70 -153 -163 24 -53 121 -68 178 -27 l30 21 11 -21 c7 -13 21
-20 40 -20 l30 0 0 130 c0 142 -8 173 -52 196 -31 16 -102 25 -133 18z m93
-216 c-6 -59 -93 -91 -112 -42 -9 23 18 62 46 67 62 12 69 9 66 -25z"/>
<path d="M4010 760 l0 -170 45 0 45 0 0 170 0 170 -45 0 -45 0 0 -170z"/>
</g>
</svg>
